FILE "Bakumatsu Roman Dai Ni Maku Gekka no Kenshi - Tsuki ni Saku Hana, Chiriyuku Hana Soundtrack (1998)(Pony Canyon)(JP)[CD-Audio].img" BINARY
  TRACK 01 AUDIO
    ISRC JPPC09802437
    INDEX 01 00:00:00
  TRACK 02 AUDIO
    ISRC JPPC09802438
    INDEX 00 00:46:10
    INDEX 01 00:49:10
  TRACK 03 AUDIO
    ISRC JPPC09802439
    INDEX 00 01:32:00
    INDEX 01 01:35:40
  TRACK 04 AUDIO
    ISRC JPPC09802440
    INDEX 00 02:18:45
    INDEX 01 02:22:47
  TRACK 05 AUDIO
    ISRC JPPC09802441
    INDEX 00 05:43:70
    INDEX 01 05:50:57
  TRACK 06 AUDIO
    ISRC JPPC09802442
    INDEX 00 06:14:20
    INDEX 01 06:18:62
  TRACK 07 AUDIO
    ISRC JPPC09802443
    INDEX 00 06:42:22
    INDEX 01 06:46:07
  TRACK 08 AUDIO
    ISRC JPPC09802444
    INDEX 00 07:19:20
    INDEX 01 07:22:20
  TRACK 09 AUDIO
    ISRC JPPC09802445
    INDEX 00 10:00:70
    INDEX 01 10:04:45
  TRACK 10 AUDIO
    ISRC JPPC09802446
    INDEX 00 10:28:60
    INDEX 01 10:31:72
  TRACK 11 AUDIO
    ISRC JPPC09802447
    INDEX 00 10:55:25
    INDEX 01 10:59:20
  TRACK 12 AUDIO
    ISRC JPPC09802448
    INDEX 00 11:23:52
    INDEX 01 11:27:17
  TRACK 13 AUDIO
    ISRC JPPC09802449
    INDEX 00 14:19:07
    INDEX 01 14:24:70
  TRACK 14 AUDIO
    ISRC JPPC09802450
    INDEX 00 14:53:25
    INDEX 01 14:56:37
  TRACK 15 AUDIO
    ISRC JPPC09802451
    INDEX 00 15:19:20
    INDEX 01 15:22:32
  TRACK 16 AUDIO
    ISRC JPPC09802452
    INDEX 00 15:31:10
    INDEX 01 15:36:27
  TRACK 17 AUDIO
    ISRC JPPC09802453
    INDEX 00 15:57:70
    INDEX 01 16:00:57
  TRACK 18 AUDIO
    ISRC JPPC09802454
    INDEX 00 18:20:12
    INDEX 01 18:23:70
  TRACK 19 AUDIO
    ISRC JPPC09802455
    INDEX 00 20:03:05
    INDEX 01 20:06:72
  TRACK 20 AUDIO
    ISRC JPPC09802456
    INDEX 00 20:32:70
    INDEX 01 20:37:47
  TRACK 21 AUDIO
    ISRC JPPC09802457
    INDEX 00 20:58:60
    INDEX 01 21:01:60
  TRACK 22 AUDIO
    ISRC JPPC09802458
    INDEX 00 24:15:57
    INDEX 01 24:19:60
  TRACK 23 AUDIO
    ISRC JPPC09802459
    INDEX 00 27:19:57
    INDEX 01 27:22:57
  TRACK 24 AUDIO
    ISRC JPPC09802460
    INDEX 00 29:31:15
    INDEX 01 29:36:57
  TRACK 25 AUDIO
    ISRC JPPC09802461
    INDEX 00 29:48:07
    INDEX 01 29:53:35
  TRACK 26 AUDIO
    ISRC JPPC09802462
    INDEX 00 32:45:30
    INDEX 01 32:48:10
  TRACK 27 AUDIO
    INDEX 00 34:06:20
    INDEX 01 34:10:62
  TRACK 28 AUDIO
    INDEX 01 35:15:20
  TRACK 29 AUDIO
    INDEX 01 36:09:70
  TRACK 30 AUDIO
    INDEX 01 36:55:25
  TRACK 31 AUDIO
    INDEX 01 37:44:40
  TRACK 32 AUDIO
    INDEX 01 39:28:50
  TRACK 33 AUDIO
    INDEX 01 40:57:35
  TRACK 34 AUDIO
    INDEX 01 42:04:52
  TRACK 35 AUDIO
    INDEX 01 43:36:10
  TRACK 36 AUDIO
    INDEX 01 45:57:67
  TRACK 37 AUDIO
    INDEX 01 46:52:27
  TRACK 38 AUDIO
    INDEX 01 47:27:37
  TRACK 39 AUDIO
    INDEX 01 48:16:35
  TRACK 40 AUDIO
    INDEX 01 49:01:40
  TRACK 41 AUDIO
    INDEX 01 49:55:02
  TRACK 42 AUDIO
    INDEX 01 50:56:02
  TRACK 43 AUDIO
    INDEX 01 51:53:37
  TRACK 44 AUDIO
    INDEX 01 52:59:62
  TRACK 45 AUDIO
    INDEX 01 53:33:40
  TRACK 46 AUDIO
    INDEX 01 53:53:65
  TRACK 47 AUDIO
    INDEX 01 54:16:22
  TRACK 48 AUDIO
    INDEX 00 54:38:47
    INDEX 01 54:41:15
